<?xml version="1.0" standalone="no"?>
<!DOCTYPE svg PUBLIC "-//W3C//DTD SVG 20010904//EN"
 "http://www.w3.org/TR/2001/REC-SVG-20010904/DTD/svg10.dtd">
<svg version="1.0" xmlns="http://www.w3.org/2000/svg"
 width="1000.000000pt" height="1000.000000pt" viewBox="0 0 1000.000000 1000.000000"
 preserveAspectRatio="xMidYMid meet">

<g transform="translate(0.000000,1000.000000) scale(0.100000,-0.100000)"
fill="#000000" stroke="none">
<path d="M4810 8565 c-109 -24 -205 -79 -290 -164 -136 -136 -175 -253 -168
-500 4 -140 3 -147 -15 -149 -29 -2 -66 -41 -77 -81 -23 -83 -4 -242 36 -312
11 -19 36 -45 56 -58 39 -25 39 -23 53 -182 l6 -66 -43 -18 c-66 -26 -313
-162 -407 -223 -46 -31 -115 -81 -154 -113 l-70 -57 -71 5 c-268 20 -536 -138
-661 -392 -60 -121 -85 -229 -92 -395 -6 -134 -6 -135 -37 -170 -139 -155
-214 -360 -232 -635 -6 -101 -9 -112 -39 -155 -145 -204 -158 -485 -37 -802
24 -64 26 -76 15 -98 -7 -14 -13 -35 -13 -48 0 -22 -3 -23 -57 -20 l-58 3 -7
90 c-41 503 -205 952 -380 1039 -51 26 -55 26 -274 26 -219 0 -414 -11 -549
-30 -154 -22 -274 -121 -359 -293 -74 -150 -117 -328 -153 -627 l-8 -65 -80
-6 c-89 -7 -117 -19 -146 -66 -42 -68 -62 -261 -39 -383 14 -75 53 -155 86
-177 19 -12 54 -20 108 -23 l81 -5 11 -87 c48 -364 188 -700 336 -809 107 -78
118 -80 765 -114 104 -5 173 9 228 46 83 55 181 226 249 434 55 170 70 246
112 583 5 41 6 42 44 42 l39 0 7 -56 c9 -74 50 -154 92 -178 20 -11 61 -21
104 -24 46 -3 71 -9 75 -19 3 -7 25 -25 49 -39 33 -19 54 -25 82 -22 34 4 44
-1 127 -71 698 -590 1449 -828 2290 -725 540 66 1064 310 1538 717 96 83 99
84 142 79 33 -3 52 1 78 17 19 12 38 28 41 36 4 11 21 15 58 15 133 2 205 70
216 207 l5 63 52 0 52 0 7 -72 c31 -324 91 -566 195 -782 57 -117 120 -194
189 -228 44 -21 58 -23 197 -21 172 3 458 20 560 34 121 17 212 70 286 167
118 155 211 411 254 699 8 57 15 105 15 108 0 3 35 5 78 5 105 0 138 18 177
96 28 56 30 67 33 200 3 107 0 155 -12 204 -31 120 -69 150 -188 150 -43 0
-78 3 -79 8 -14 211 -74 497 -133 633 -102 238 -209 333 -400 359 -119 16
-527 33 -639 27 -122 -6 -185 -34 -252 -110 -128 -146 -254 -544 -286 -902 -6
-71 -13 -136 -15 -142 -2 -9 -24 -13 -64 -13 -50 0 -60 3 -60 18 0 9 -9 32
-20 49 l-19 33 39 117 c108 324 88 571 -62 764 -26 34 -28 44 -28 119 0 242
-78 475 -215 643 l-45 56 0 88 c0 179 -40 344 -116 482 -49 87 -188 226 -271
269 -124 65 -166 75 -309 77 l-131 1 -64 57 c-98 89 -221 167 -414 264 l-175
88 0 43 c0 24 5 75 12 114 10 64 14 71 40 80 115 40 146 412 39 459 l-26 12 0
171 c0 138 -4 183 -18 231 -56 182 -180 311 -367 380 -67 25 -90 29 -220 31
-101 3 -165 -1 -210 -11z m-127 -754 c33 -22 81 -47 108 -56 54 -18 62 -31 24
-41 -23 -6 -36 -24 -17 -24 4 0 36 -5 72 -10 41 -6 90 -6 133 0 114 17 284
107 385 204 33 32 45 38 51 27 16 -26 22 -155 10 -236 -13 -99 -14 -89 10
-155 41 -112 22 -252 -53 -379 l-37 -63 37 21 37 22 -7 -53 c-8 -59 -57 -181
-108 -265 -55 -92 -161 -199 -215 -217 -61 -21 -156 -21 -177 0 -40 39 -1 95
101 145 l58 28 -57 1 c-102 0 -140 31 -75 62 24 11 55 14 125 10 105 -5 134 6
84 32 -19 10 -56 16 -98 16 l-67 0 36 33 c20 17 52 62 71 100 29 57 32 67 17
67 -9 0 -30 -14 -47 -31 -35 -37 -101 -72 -120 -65 -12 5 -14 34 -8 190 l7
184 -39 10 c-21 6 -84 22 -139 37 -155 41 -151 40 -179 12 -21 -21 -24 -30
-17 -55 16 -55 30 -69 88 -92 61 -24 103 -60 103 -88 0 -22 -55 -240 -62 -247
-3 -3 -11 16 -17 42 -20 79 -45 125 -106 192 -69 78 -105 149 -105 211 0 50
19 129 42 175 9 19 12 41 7 60 -11 48 -10 237 2 279 l11 39 36 -41 c21 -23 63
-59 95 -81z m-276 -185 c14 -31 14 -38 0 -73 -8 -21 -18 -64 -22 -96 -4 -32
-11 -55 -16 -50 -13 13 -39 123 -39 164 0 88 45 121 77 55z m1221 3 c17 -32
10 -141 -13 -196 -9 -24 -21 -43 -25 -43 -4 0 -10 30 -13 68 -3 37 -12 81 -18
98 -11 27 -10 36 10 68 25 41 39 42 59 5z m2 -795 c143 -58 300 -148 389 -222
l34 -29 -81 -32 c-78 -32 -89 -33 -229 -36 -84 -1 -188 -9 -241 -19 -91 -16
-297 -66 -337 -82 -11 -4 12 26 51 67 92 96 151 177 198 272 21 43 41 77 45
77 4 0 8 -16 9 -35 2 -20 7 -59 12 -87 6 -28 10 -69 11 -92 l0 -41 18 40 c10
22 26 86 36 143 10 56 19 102 20 102 1 0 30 -12 65 -26z m-1230 9 c0 -5 -41
-64 -90 -133 l-90 -125 83 -19 c100 -24 86 -30 -90 -40 -108 -6 -130 -5 -195
14 -110 33 -113 39 -37 95 86 63 178 116 296 170 97 44 123 52 123 38z m-587
-400 c45 -20 84 -38 86 -39 2 -2 -15 -24 -37 -51 -40 -49 -67 -93 -57 -93 3 0
34 24 68 53 34 29 87 64 117 77 52 23 65 25 220 24 283 -1 544 -67 666 -167
78 -65 87 -130 59 -457 -22 -264 -38 -321 -107 -387 -124 -119 -469 -138 -744
-42 -127 44 -209 93 -285 168 -131 131 -169 294 -108 456 10 28 19 51 19 53 0
10 -28 -19 -91 -95 -79 -93 -158 -157 -261 -209 -76 -39 -94 -41 -102 -16 -17
55 -25 118 -27 205 -2 87 -4 96 -15 74 -20 -38 -50 -154 -64 -250 -7 -48 -17
-84 -21 -80 -18 18 -39 132 -39 208 1 240 128 466 312 554 86 41 124 49 236
50 87 1 98 -1 175 -36z m2648 21 c120 -36 216 -107 288 -214 70 -106 119 -299
108 -430 -6 -74 -26 -160 -37 -160 -4 0 -10 33 -13 73 -7 99 -33 206 -60 247
l-22 35 -7 -130 c-4 -71 -11 -145 -15 -163 l-8 -33 -87 45 c-114 58 -193 120
-267 209 -33 39 -69 77 -79 84 -19 11 -19 10 2 -30 17 -35 21 -60 21 -157 0
-109 -2 -118 -33 -184 -49 -104 -136 -183 -276 -252 -170 -83 -237 -98 -441
-98 -138 -1 -181 3 -230 17 -163 50 -221 120 -244 292 -17 128 -34 435 -26
488 20 157 159 245 470 297 310 52 436 32 580 -90 32 -27 63 -50 67 -50 12 0
-29 63 -62 95 -16 16 -30 32 -30 37 0 9 85 53 140 74 50 18 195 17 261 -2z
m-2962 -881 c83 -104 60 -316 -59 -558 -88 -182 -182 -274 -278 -275 -48 0
-70 14 -133 83 l-57 62 -7 -55 c-6 -49 -1 -72 43 -210 28 -85 55 -188 61 -229
13 -82 28 -118 43 -103 5 5 15 55 22 112 16 116 34 148 79 136 96 -24 102
-211 15 -449 -18 -48 -37 -86 -43 -84 -5 2 -21 25 -35 52 -30 60 -90 120 -135
135 -46 15 -101 0 -197 -56 -43 -24 -80 -44 -82 -44 -7 0 -44 103 -66 184 -11
39 -25 122 -31 184 -9 105 -9 118 11 180 28 85 38 105 98 178 l49 60 6 140 c7
142 22 227 58 324 33 89 120 232 134 218 2 -2 5 -76 6 -163 2 -88 5 -194 9
-235 l6 -75 12 45 c49 172 94 260 174 340 74 74 175 125 255 129 12 1 30 -10
42 -26z m3062 11 c101 -30 183 -91 243 -184 49 -74 70 -122 101 -234 20 -75
22 -78 28 -47 4 19 7 84 7 146 0 61 3 154 7 205 l6 94 31 -36 c42 -49 100
-166 127 -258 16 -58 22 -112 26 -235 l5 -160 35 -38 c55 -61 92 -126 115
-201 17 -58 20 -83 14 -160 -8 -117 -77 -385 -99 -386 -5 0 -39 17 -75 38
-129 74 -176 82 -242 38 -39 -26 -100 -106 -100 -133 0 -13 -38 -38 -47 -30
-2 3 -23 58 -45 123 -34 97 -42 136 -46 215 -4 77 -1 102 13 130 25 49 45 69
70 69 36 0 55 -33 71 -121 19 -114 23 -129 33 -129 5 0 15 26 21 58 22 114 51
214 90 317 44 116 48 144 24 180 l-16 24 -31 -41 c-51 -65 -81 -83 -141 -83
-119 2 -219 108 -312 332 -90 217 -99 418 -22 500 25 27 37 28 109 7z m-1504
-369 c84 -36 199 -65 421 -105 105 -19 129 -27 157 -52 19 -16 36 -42 40 -58
9 -41 -23 -107 -73 -152 l-42 -38 -62 40 c-62 40 -142 69 -253 90 -110 21
-170 41 -199 68 -32 31 -56 79 -56 117 0 14 -4 25 -10 25 -5 0 -10 -12 -10
-26 0 -15 -12 -48 -26 -75 -34 -61 -73 -81 -214 -110 -126 -26 -215 -57 -275
-99 l-45 -31 -30 21 c-79 56 -110 146 -71 206 25 40 71 56 256 89 160 28 280
62 351 99 27 14 51 25 54 26 2 0 41 -16 87 -35z m-1084 -100 c27 -13 68 -27
93 -31 39 -6 44 -9 44 -33 1 -23 12 -59 35 -114 7 -16 4 -17 -21 -11 -54 13
-122 53 -153 91 -29 36 -67 123 -53 123 4 0 29 -11 55 -25z m2051 -28 c-25
-73 -103 -142 -186 -162 l-28 -7 15 42 c8 23 15 57 15 75 0 32 2 34 53 45 28
7 72 23 97 35 25 13 46 22 47 21 2 -2 -4 -23 -13 -49z m-4317 -194 c-69 -109
-132 -272 -168 -434 -135 -615 -59 -1460 166 -1833 40 -67 31 -73 -18 -13
-138 169 -245 533 -277 946 -5 74 -10 139 -10 143 0 4 -41 8 -91 8 l-92 0 6
213 c5 202 20 334 51 441 l12 41 86 3 86 3 7 37 c22 119 104 313 168 397 31
41 89 96 95 90 2 -2 -8 -21 -21 -42z m6630 -45 c23 -29 53 -77 68 -107 31 -62
105 -281 105 -311 0 -18 7 -20 89 -20 l89 0 10 -42 c36 -145 65 -469 54 -615
l-3 -43 -88 0 -88 0 -12 -137 c-31 -351 -100 -636 -203 -836 -37 -70 -124
-184 -135 -174 -2 2 12 27 30 54 94 140 186 448 229 773 20 148 17 662 -5 825
-21 154 -48 281 -83 390 -28 88 -125 298 -143 309 -6 4 -11 12 -11 17 0 19 56
-30 97 -83z m401 -58 c44 -66 94 -185 123 -297 l22 -83 89 0 c103 0 98 5 123
-121 19 -97 38 -434 30 -516 l-7 -63 -89 0 -89 0 0 -59 c0 -257 -82 -647 -175
-836 -49 -99 -117 -196 -130 -184 -2 3 15 43 39 89 148 285 226 770 197 1215
-20 298 -62 535 -127 715 -29 81 -85 199 -115 242 -11 14 -19 30 -19 34 0 16
92 -82 128 -136z m-7407 91 c-36 -51 -97 -190 -130 -296 -76 -246 -105 -482
-105 -845 0 -222 4 -290 23 -420 38 -263 97 -468 181 -628 22 -42 38 -77 37
-79 -2 -1 -17 12 -35 30 -138 143 -266 592 -275 969 l-2 98 -94 0 -94 0 6 218
c5 208 30 413 56 461 7 13 26 16 95 16 l87 0 10 40 c48 189 116 333 197 417
58 61 79 70 43 19z m2380 -73 c49 -97 128 -209 174 -244 l33 -25 6 -142 c4
-78 11 -224 17 -325 6 -101 10 -185 8 -187 -2 -2 -102 -8 -223 -15 l-218 -11
-37 40 c-25 27 -52 44 -83 52 -46 13 -46 13 -33 39 28 53 83 228 95 300 14 81
8 203 -11 258 -11 33 -11 35 48 95 66 69 120 140 152 205 12 23 24 42 26 42 3
0 23 -37 46 -82z m2628 -18 c19 -33 65 -93 103 -135 l69 -74 -12 -43 c-17 -61
-14 -209 6 -303 13 -64 54 -181 91 -261 3 -6 -13 -16 -34 -22 -24 -7 -55 -28
-76 -53 l-37 -40 -216 11 c-119 6 -218 12 -221 14 -2 3 1 80 7 173 6 92 13
240 16 328 l7 160 32 27 c49 40 109 123 162 222 53 99 45 99 103 -4z m-329 50
c-14 -50 -50 -100 -94 -132 -38 -28 -41 -28 -44 -10 -6 37 26 90 78 131 28 23
56 41 60 41 5 0 5 -14 0 -30z m-1992 -15 c55 -39 75 -70 70 -109 l-3 -28 -48
42 c-48 42 -77 86 -77 115 0 21 3 20 58 -20z m844 -5 c62 -18 78 -49 78 -149
0 -68 -4 -93 -20 -118 -37 -61 -59 -68 -210 -68 -147 0 -177 8 -213 56 -37 51
-31 163 12 213 45 53 257 92 353 66z m461 -6 c134 -25 173 -69 165 -184 -8
-115 -50 -143 -221 -148 -140 -5 -197 10 -228 62 -26 43 -27 200 -1 233 41 53
132 65 285 37z m-3314 -59 c44 -22 119 -112 156 -185 74 -149 125 -380 125
-571 l0 -80 -37 3 c-26 2 -37 7 -35 16 6 29 -19 260 -39 356 -27 131 -86 283
-154 390 -29 47 -51 86 -49 86 3 0 18 -7 33 -15z m3702 -116 c-32 -83 -118
-199 -96 -128 4 11 8 61 9 111 l2 90 50 26 49 27 3 -36 c2 -20 -6 -60 -17 -90z
m2252 79 c-118 -175 -189 -413 -200 -670 l-6 -128 -38 0 -39 0 0 64 c0 98 27
289 56 396 46 168 136 321 218 371 47 28 48 24 9 -33z m-3683 13 l45 -27 6
-75 c3 -41 9 -92 14 -114 l8 -40 -32 30 c-18 16 -45 57 -61 90 -29 59 -51 166
-34 164 5 0 29 -13 54 -28z m86 -446 c11 -17 13 -45 8 -139 l-7 -117 -23 22
c-12 11 -36 46 -52 77 -25 48 -32 73 -38 156 l-7 98 52 -37 c29 -21 59 -48 67
-60z m1338 28 c-10 -121 -22 -163 -67 -224 -23 -32 -46 -59 -50 -59 -5 0 -7
57 -5 126 l3 126 45 39 c25 21 50 43 55 48 21 20 24 9 19 -56z m-800 8 c26
-24 26 -26 26 -178 0 -87 -5 -163 -10 -174 -10 -17 -22 -19 -119 -19 -106 0
-110 1 -157 33 -27 17 -62 52 -79 75 -28 41 -30 49 -30 137 0 141 21 155 222
152 113 -2 123 -4 147 -26z m456 11 c20 -10 42 -32 52 -52 24 -46 23 -134 -1
-185 -22 -47 -94 -119 -134 -134 -38 -15 -234 -14 -243 0 -3 6 -7 82 -8 169
-1 172 2 181 59 206 47 21 231 18 275 -4z m-2363 -264 c31 -29 30 -73 -2 -94
-28 -19 -169 -50 -270 -60 -59 -6 -65 -5 -59 10 5 13 279 163 303 165 3 1 15
-9 28 -21z m4131 -57 c132 -66 172 -93 155 -104 -8 -5 -266 37 -306 49 -25 8
-57 45 -57 66 0 22 34 58 55 58 8 0 77 -31 153 -69z m-5120 33 c21 -15 52 -73
52 -99 0 -7 -20 -18 -44 -24 -35 -8 -49 -19 -68 -48 -21 -34 -23 -50 -23 -158
0 -110 2 -124 25 -165 23 -41 29 -45 68 -48 50 -4 53 -18 13 -61 -66 -70 -134
-13 -176 150 -23 88 -16 269 14 354 36 99 87 136 139 99z m6038 2 c33 -24 73
-126 85 -218 19 -155 -17 -314 -89 -390 -40 -43 -77 -36 -116 22 -23 35 -21
38 26 42 38 3 45 7 65 42 46 83 52 238 12 317 -24 47 -44 62 -85 63 -25 1 -33
5 -29 16 2 8 7 27 11 43 7 31 57 77 83 77 9 0 26 -6 37 -14z m-7326 -241 l0
-95 -70 0 -70 0 0 73 c0 99 13 117 86 117 l54 0 0 -95z m8658 70 c7 -14 12
-57 12 -95 l0 -70 -70 0 -70 0 0 95 0 95 58 0 c53 0 60 -2 70 -25z m-6522 -69
c-14 -58 -36 -340 -27 -349 7 -7 14 -1 21 19 14 36 60 270 60 306 0 54 6 58
86 58 l74 0 0 -32 c0 -18 -7 -100 -15 -183 -18 -183 -18 -188 -3 -183 19 7 36
70 58 216 28 192 25 182 63 182 18 0 42 -6 53 -14 18 -13 19 -27 17 -190 0
-97 2 -176 7 -176 25 0 50 135 50 268 0 50 3 92 8 92 4 0 24 -5 44 -10 41 -12
43 -17 53 -140 8 -89 -8 -195 -33 -230 -18 -24 -49 -43 -163 -95 -63 -29 -111
-27 -152 5 -21 17 -23 17 -51 -7 -36 -30 -80 -27 -135 12 -24 16 -51 25 -74
25 -51 0 -102 23 -123 55 -14 22 -16 40 -10 113 6 87 37 246 49 259 10 9 130
31 140 25 5 -2 6 -14 3 -26z m3979 2 c3 -18 12 -82 21 -143 18 -129 38 -213
55 -229 9 -8 10 12 5 89 -20 305 -20 297 -5 306 17 11 126 12 133 1 2 -4 10
-48 16 -98 13 -100 46 -251 60 -274 21 -33 22 9 6 176 -9 97 -14 179 -12 182
3 2 32 1 65 -3 l60 -7 15 -46 c18 -57 36 -184 36 -259 0 -49 -4 -59 -34 -89
-29 -29 -41 -34 -81 -34 -34 0 -55 -7 -80 -26 -51 -39 -107 -43 -148 -11 -31
23 -36 24 -49 10 -9 -8 -37 -18 -63 -21 -38 -4 -58 0 -99 21 -28 14 -72 34
-98 46 -69 30 -81 59 -86 211 -3 87 0 137 10 165 12 37 16 40 56 43 l42 3 0
-88 c0 -102 14 -209 32 -249 l13 -27 6 24 c4 13 7 97 8 186 1 181 -5 168 78
172 29 1 33 -2 38 -31z m-4256 -14 c4 -5 4 -28 -1 -51 l-9 -43 -275 0 -274 0
0 48 c0 27 2 51 4 53 8 8 548 1 555 -7z m5374 -4 c5 -4 7 -25 5 -46 l-3 -39
-281 -3 -281 -2 -11 27 c-29 73 -46 67 238 73 258 5 318 4 333 -10z m-1843
-41 c151 -5 285 -12 297 -15 19 -5 21 -11 16 -37 -3 -18 -6 -33 -7 -34 -1 0
-309 3 -686 9 -646 9 -1420 6 -1951 -8 l-236 -7 -5 32 c-3 23 0 35 11 41 18 9
540 29 876 34 360 5 1397 -4 1685 -15z m-2223 -241 c-2 -7 -37 -152 -77 -323
-40 -170 -75 -312 -77 -315 -10 -11 -367 216 -453 288 l-34 29 65 31 c134 64
194 131 206 231 3 28 6 52 7 52 2 3 223 16 295 17 55 2 72 -1 68 -10z m2505 2
c26 0 48 -29 48 -64 0 -49 46 -131 92 -165 22 -16 69 -42 104 -58 35 -15 64
-31 64 -35 0 -20 -475 -340 -484 -326 -1 2 -12 46 -24 98 -48 212 -123 526
-128 544 -6 18 -1 19 152 13 88 -4 167 -7 176 -7z m-4112 -44 c0 -50 -47 -318
-70 -404 -46 -169 -115 -282 -193 -321 -22 -11 -43 -19 -45 -16 -2 2 11 23 30
47 99 123 155 282 193 556 26 185 22 172 55 172 27 0 30 -3 30 -34z m5474 12
c3 -13 12 -77 21 -143 36 -267 93 -445 179 -558 20 -26 36 -49 36 -52 0 -2
-14 1 -30 7 -42 14 -107 91 -146 173 -39 80 -76 232 -104 418 -27 175 -27 177
10 177 23 0 31 -5 34 -22z"/>
<path d="M5190 7394 c-98 -21 -152 -43 -146 -61 3 -8 6 -16 6 -19 0 -2 19 -13
43 -25 91 -48 229 -18 264 56 9 19 23 36 32 38 24 5 -58 27 -99 26 -19 0 -64
-7 -100 -15z"/>
<path d="M4215 8340 c-457 -117 -853 -311 -1205 -590 -133 -105 -382 -354
-489 -489 -438 -552 -673 -1214 -684 -1929 l-2 -152 122 -3 121 -2 6 145 c9
192 22 330 47 470 189 1086 968 1967 2007 2271 75 21 136 40 137 42 1 1 7 29
13 62 7 33 29 95 50 138 21 42 36 77 33 76 -3 0 -73 -18 -156 -39z"/>
<path d="M5613 8369 c42 -94 78 -191 83 -221 4 -21 12 -42 18 -47 6 -5 47 -19
91 -31 435 -121 885 -388 1226 -729 539 -540 839 -1260 839 -2016 l0 -145 130
0 130 0 0 88 c0 355 -75 784 -195 1117 -66 184 -207 466 -313 625 -456 684
-1108 1146 -1892 1340 -47 12 -94 24 -104 27 -14 4 -17 1 -13 -8z"/>
</g>
</svg>
